<svg width="535" height="150" viewBox="0 0 535 150" fill="none" xmlns="http://www.w3.org/2000/svg">
<path fill-rule="evenodd" clip-rule="evenodd" d="M5 12C2.23858 12 0 14.2386 0 17V107C0 109.761 2.23858 112 5 112H25V132C25 134.761 27.2386 137 30 137H120C122.761 137 125 134.761 125 132V42C125 39.2386 122.761 37 120 37H100V17C100 14.2386 97.7614 12 95 12H5ZM100 37H30C27.2386 37 25 39.2386 25 42V112H95C97.7614 112 100 109.761 100 107V37Z" fill="black"/>
<path d="M168.6 40.3V84.4C168.6 90.6 170.1 95.2 173.1 98.2C176.167 101.2 180.4 102.7 185.8 102.7C191.133 102.7 195.3 101.2 198.3 98.2C201.367 95.2 202.9 90.6 202.9 84.4V40.3H212V84.3C212 90.1 210.833 95 208.5 99C206.167 102.933 203 105.867 199 107.8C195.067 109.733 190.633 110.7 185.7 110.7C180.767 110.7 176.3 109.733 172.3 107.8C168.367 105.867 165.233 102.933 162.9 99C160.633 95 159.5 90.1 159.5 84.3V40.3H168.6ZM253.88 54.2C260.547 54.2 265.947 56.2333 270.08 60.3C274.214 64.3 276.28 70.1 276.28 77.7V110H267.28V79C267.28 73.5333 265.914 69.3667 263.18 66.5C260.447 63.5667 256.714 62.1 251.98 62.1C247.18 62.1 243.347 63.6 240.48 66.6C237.68 69.6 236.28 73.9667 236.28 79.7V110H227.18V55.2H236.28V63C238.08 60.2 240.514 58.0333 243.58 56.5C246.714 54.9667 250.147 54.2 253.88 54.2ZM295.845 46.3C294.112 46.3 292.645 45.7 291.445 44.5C290.245 43.3 289.645 41.8333 289.645 40.1C289.645 38.3667 290.245 36.9 291.445 35.7C292.645 34.5 294.112 33.9 295.845 33.9C297.512 33.9 298.912 34.5 300.045 35.7C301.245 36.9 301.845 38.3667 301.845 40.1C301.845 41.8333 301.245 43.3 300.045 44.5C298.912 45.7 297.512 46.3 295.845 46.3ZM300.245 55.2V110H291.145V55.2H300.245ZM338.055 62.7H326.555V110H317.455V62.7H310.355V55.2H317.455V51.3C317.455 45.1667 319.021 40.7 322.155 37.9C325.355 35.0333 330.455 33.6 337.455 33.6V41.2C333.455 41.2 330.621 42 328.955 43.6C327.355 45.1333 326.555 47.7 326.555 51.3V55.2H338.055V62.7ZM395.865 55.2L362.865 135.8H353.465L364.265 109.4L342.165 55.2H352.265L369.465 99.6L386.465 55.2H395.865ZM414.113 47.7V71H439.513V78.5H414.113V102.5H442.513V110H405.013V40.2H442.513V47.7H414.113ZM526.982 40.8V110H517.882V58.4L494.882 110H488.482L465.382 58.3V110H456.282V40.8H466.082L491.682 98L517.282 40.8H526.982Z" fill="black"/>
</svg>
